<svg width="152" height="152" viewBox="0 0 152 152" fill="none" xmlns="http://www.w3.org/2000/svg">
<path d="M72.6005 26.0627C73.6987 24.4332 76.32 25.0428 77.9927 23.5836C78.2439 23.368 78.4456 23.1007 78.584 22.8C78.6425 22.5849 78.5202 22.2437 78.2914 22.3121C77.8354 22.4481 77.96 22.8441 77.1636 23.3305C75.6671 24.2364 73.7056 23.9294 72.4067 25.2168C71.3207 26.2945 71.3617 27.9338 70.5584 29.1012C70.505 29.1871 70.4563 29.2759 70.4125 29.3672C70.3023 29.5716 70.5303 29.833 70.7438 29.6985C71.7698 29.054 71.8291 27.208 72.6005 26.0627ZM84.0818 20.5375C83.603 21.2177 82.8582 22.8456 81.1786 23.7333C80.8274 23.9139 80.4556 24.0512 80.0713 24.1422C79.9921 24.1652 79.9238 24.2158 79.8787 24.285C79.8337 24.3541 79.8151 24.4371 79.8261 24.5189C79.8372 24.6007 79.8772 24.6757 79.9389 24.7304C80.0007 24.7852 80.08 24.8159 80.1625 24.817C81.9637 24.6552 84.0803 22.4413 84.5409 20.7298C84.5545 20.6717 84.5471 20.6106 84.52 20.5574C84.4929 20.5043 84.4478 20.4625 84.3927 20.4394C84.3377 20.4163 84.2762 20.4135 84.2193 20.4315C84.1624 20.4495 84.1137 20.487 84.0818 20.5375ZM82.2898 27.7871C82.3458 27.818 82.4097 27.8319 82.4736 27.827C82.5374 27.8221 82.5984 27.7987 82.6492 27.7597C82.6999 27.7206 82.7382 27.6676 82.7592 27.6072C82.7803 27.5467 82.7833 27.4814 82.7678 27.4193C82.5732 26.7702 81.4431 26.2572 80.7667 26.0969C79.3361 25.8404 77.8612 26.0318 76.5434 26.6448C76.5141 26.6529 76.4867 26.6667 76.4627 26.6854C76.4388 26.7041 76.4187 26.7273 76.4037 26.7537C76.3887 26.7801 76.3791 26.8093 76.3753 26.8394C76.3716 26.8696 76.3738 26.9002 76.3819 26.9295C76.39 26.9588 76.4038 26.9862 76.4224 27.0101C76.4411 27.0341 76.4643 27.0542 76.4908 27.0692C76.5172 27.0842 76.5463 27.0938 76.5765 27.0975C76.6066 27.1013 76.6372 27.099 76.6665 27.091C76.8945 27.0568 77.1225 27.0332 77.3422 26.9944C77.5618 26.9557 77.7845 26.8949 78.0056 26.8523C81.1589 26.242 81.8353 27.5561 82.2898 27.7871ZM82.6606 28.8846C81.3686 27.7567 79.7932 27.9285 77.8612 28.1724C77.8248 28.1705 77.7883 28.176 77.754 28.1886C77.7197 28.2013 77.6883 28.2207 77.6618 28.2459C77.6353 28.271 77.6142 28.3013 77.5998 28.3349C77.5853 28.3684 77.5779 28.4046 77.5779 28.4411C77.5779 28.4776 77.5853 28.5138 77.5998 28.5474C77.6142 28.5809 77.6353 28.6112 77.6618 28.6363C77.6883 28.6615 77.7197 28.6809 77.754 28.6936C77.7883 28.7062 77.8248 28.7117 77.8612 28.7098C80.2818 28.8131 81.1764 28.2902 82.4858 29.9349C82.9601 30.53 83.8356 29.9121 82.6606 28.8846ZM93.993 21.5445C93.9203 21.1376 93.7647 20.75 93.5359 20.4058C93.3071 20.0615 93.01 19.768 92.663 19.5434C92.4031 19.38 92.153 19.7395 92.3461 19.9538C93.2353 20.9418 93.4101 22.7217 93.3584 24.0152C93.3394 24.4796 93.2064 25.1454 93.635 25.1552C94.525 25.1704 94.199 22.3524 93.993 21.5445ZM96.0313 22.2764C96.0024 22.2309 95.9598 22.1959 95.9096 22.1764C95.8594 22.157 95.8043 22.1541 95.7523 22.1682C95.7003 22.1823 95.6542 22.2126 95.6208 22.2548C95.5873 22.2969 95.5682 22.3487 95.5662 22.4025C95.5575 22.7421 95.5848 23.0817 95.6475 23.4156C95.7995 25.3156 95.3025 26.0581 95.4955 26.4906C95.5342 26.5559 95.5971 26.6033 95.6705 26.6225C95.7439 26.6417 95.822 26.6312 95.8877 26.5932C96.52 26.1904 96.5892 23.028 96.0313 22.2764ZM43.0418 63.0131C43.1596 63.7412 43.0928 63.9251 43.2007 64.0961C43.4021 64.4168 43.7046 64.4001 43.8429 64.1805C44.1925 63.6287 43.4234 59.9283 41.6434 58.0845C41.4457 57.8955 41.2341 57.7214 41.0104 57.5639C40.8196 57.4188 40.5544 57.7007 40.6836 57.8907C41.9307 59.7398 42.6816 60.7947 43.0418 63.0131ZM45.5491 61.4452C45.9079 62.9536 46.0885 64.4989 46.0872 66.0493C46.097 66.4894 46.0659 66.5122 46.3076 66.8032C46.3466 66.8422 46.3995 66.864 46.4546 66.864C46.5098 66.864 46.5626 66.8422 46.6017 66.8032C46.857 66.5334 46.8608 66.478 46.838 65.4846C46.7256 60.7164 44.862 56.2468 42.962 54.1485C42.7819 53.9494 42.4916 54.2024 42.6056 54.4236C43.7 56.5508 44.764 58.14 45.5491 61.4452ZM91.0997 78.0292C91.8711 78.1956 146.243 87.8142 147.067 87.84C147.432 87.8514 146.951 87.8051 147.098 87.84C147.221 87.8567 147.346 87.863 147.47 87.859C147.588 87.8803 147.709 87.869 147.821 87.8264L147.647 87.8492C148.018 87.9183 148.078 87.4806 147.815 87.4281C147.776 87.4205 147.711 87.3764 147.901 87.5216C147.25 87.2128 146.559 86.9976 145.849 86.8824C144.557 86.5784 91.8779 77.675 91.2342 77.542C90.9165 77.4744 90.7797 77.9608 91.0997 78.0292ZM101.325 102.208C101.728 102.245 142.546 110.563 142.919 110.351L142.741 110.376C142.798 110.397 142.861 110.394 142.916 110.369C142.971 110.344 143.014 110.298 143.035 110.241C143.057 110.184 143.054 110.121 143.029 110.065C143.004 110.01 142.957 109.967 142.901 109.946C140.958 109.309 101.677 101.877 101.329 101.859C101.097 101.848 101.107 102.188 101.325 102.208ZM92.1789 93.9846C92.5437 92.5239 92.5406 91.1529 93.116 87.7093C93.1657 87.5461 93.1702 87.3725 93.1289 87.207C92.9632 86.7836 92.3962 86.7928 92.3043 87.4106C91.9676 89.664 91.8103 91.1886 91.7198 92.4183C91.6459 92.9171 91.6479 93.4242 91.7259 93.9223C91.7472 94.1693 92.112 94.2529 92.1789 93.9846ZM96.3802 94.924C96.6621 94.6344 96.96 94.3593 97.2352 94.0644C100.565 90.5016 100.546 90.6672 100.74 90.386C100.783 90.3093 100.799 90.2208 100.787 90.1339C100.775 90.0471 100.734 89.9665 100.672 89.9045C100.61 89.8425 100.53 89.8023 100.443 89.79C100.356 89.7778 100.268 89.7941 100.191 89.8366C98.6526 91.3055 97.2587 92.9185 96.0283 94.6534C95.8831 94.8594 96.2054 95.0988 96.3802 94.924ZM98.7468 98.6974C98.9505 98.7036 99.1537 98.6753 99.348 98.6138C99.9163 98.4437 100.496 98.3149 101.083 98.2285C104.688 97.5521 104.785 97.6334 104.872 97.2846C104.893 97.2022 104.886 97.1156 104.853 97.0375C104.82 96.9593 104.763 96.8938 104.69 96.8506C104.532 96.784 104.356 96.7788 104.194 96.8362C101.579 97.3378 100.724 97.4746 99.7865 97.7558C98.6982 98.0833 98.7795 98.2004 98.5591 98.3744C98.5288 98.4045 98.5093 98.4438 98.5037 98.4861C98.4981 98.5285 98.5067 98.5715 98.5281 98.6084C98.5496 98.6454 98.5827 98.6741 98.6223 98.6902C98.6619 98.7063 98.7056 98.7089 98.7468 98.6974ZM133.288 67.1217C133.021 65.2924 130.729 63.9912 129.782 62.013C128.566 59.4708 129.869 57.757 129.227 55.6746C129.097 55.252 128.431 55.4321 128.562 55.8577C129.214 57.9743 127.191 60.4534 130.293 64.0657C131.246 65.1753 132.524 66.2454 132.586 67.4204C132.578 67.9483 132.45 68.4675 132.211 68.9382C131.972 69.4089 131.628 69.8186 131.206 70.1358C129.805 71.323 127.688 71.5403 125.574 72.5374C123.674 73.4327 121.975 74.7848 120.132 75.8488C116.883 77.7244 111.205 79.3691 107.947 78.2504C105.013 77.2426 104.287 74.2224 106.55 72.2464C106.746 72.3345 109.382 73.128 112.162 74.2421C112.23 74.26 112.302 74.2573 112.369 74.2344C112.436 74.2115 112.494 74.1694 112.537 74.1134C112.581 74.0573 112.606 73.9898 112.611 73.9193C112.616 73.8488 112.6 73.7784 112.565 73.717C111.926 72.4114 111.113 71.1983 110.148 70.1108L110.347 70.0036C112.105 70.3314 113.827 70.8321 115.487 71.4985C115.55 71.5157 115.617 71.5158 115.68 71.499C115.743 71.4821 115.801 71.4489 115.847 71.4026C115.894 71.3564 115.927 71.2987 115.944 71.2355C115.961 71.1722 115.96 71.1057 115.943 71.0425C115.459 69.7952 114.726 68.6593 113.789 67.7038C114.513 67.0958 113.359 67.6278 118.695 68.3225C118.761 68.3221 118.826 68.3042 118.884 68.2707C118.941 68.2372 118.989 68.1892 119.022 68.1315C119.055 68.0738 119.072 68.0084 119.072 67.9419C119.072 67.8754 119.055 67.8101 119.021 67.7525C118.426 66.5526 117.537 65.5226 116.437 64.7581C118.168 62.0928 117.762 60.2961 118.607 59.2101C120.306 57.0205 124.524 62.3702 127.271 59.2587C127.684 58.8042 127.952 58.2375 128.043 57.6303C128.133 57.0232 128.041 56.4028 127.779 55.8478C127.627 55.5568 127.108 55.7635 127.238 56.0758C127.465 56.6618 127.469 57.3108 127.249 57.8993C127.029 58.4879 126.6 58.9749 126.044 59.2678C123.552 60.5332 119.987 56.0249 117.935 58.8392C116.978 60.151 117.479 61.7272 115.797 64.3591C115.526 64.2056 115.24 64.0807 114.943 63.9867C114.862 63.9673 114.777 63.9771 114.703 64.0145C114.629 64.052 114.571 64.1145 114.538 64.191C114.506 64.2675 114.502 64.3529 114.527 64.4322C114.552 64.5114 114.604 64.5792 114.674 64.6236C114.902 64.7459 115.13 64.863 115.358 64.9884C114.915 65.5797 114.42 66.1304 113.878 66.6338C113.361 66.5441 112.831 66.5479 112.315 66.6452C112.246 66.6668 112.184 66.7078 112.138 66.7633C112.091 66.8188 112.061 66.8866 112.052 66.9585C112.042 67.0304 112.053 67.1036 112.084 67.1692C112.115 67.2349 112.164 67.2904 112.225 67.3292C112.529 67.5572 112.572 67.6012 112.649 67.6658C111.855 68.2575 111.019 68.7929 110.15 69.2679C109.784 69.2162 109.416 69.1706 109.051 69.122C108.983 69.1231 108.918 69.144 108.862 69.182C108.806 69.22 108.762 69.2735 108.737 69.336C108.711 69.3984 108.704 69.467 108.716 69.5333C108.729 69.5997 108.761 69.6609 108.808 69.7095C108.866 69.7695 108.923 69.8303 108.98 69.8904C108.03 70.3423 107.143 70.915 106.34 71.5943C103.908 73.812 104.067 76.5396 106.277 78.2063C108.439 79.8403 111.962 79.4398 114.622 78.8211C117.463 78.1432 120.145 76.9214 122.521 75.2233C127.317 72.0548 127.461 72.8209 130.171 71.608C132.62 70.512 133.504 68.5984 133.288 67.1217ZM114.883 70.4748C113.715 70.0442 112.515 69.705 111.294 69.4602C111.955 69.0691 112.593 68.6395 113.204 68.1735C113.884 68.8446 114.452 69.6218 114.883 70.4748ZM115.999 65.3828C116.8 65.9353 117.48 66.646 117.997 67.4713C116.902 67.3347 115.82 67.1134 114.76 66.8093C115.207 66.3636 115.621 65.8864 115.999 65.3813V65.3828ZM109.496 70.452C110.197 71.249 110.824 72.1078 111.37 73.0178C111.586 73.3788 111.707 73.2268 109.56 72.5618C108.711 72.2993 107.848 72.0807 106.976 71.9066C107.777 71.3574 108.62 70.8711 109.496 70.452Z" fill="#191919"/>
<path d="M129.817 68.2055C127.976 70.4718 126.057 69.7939 123.863 70.5752C119.26 72.2152 116.407 77.1712 111.258 76.7821C109.445 76.6445 107.1 76.1908 105.808 74.9026C105.664 74.7597 105.407 74.9459 105.523 75.123C105.642 75.3066 105.774 75.4818 105.917 75.6474C107.241 77.1727 111.475 77.7579 113.483 77.3384C117.631 76.4713 120.386 72.5246 124.158 71.25C126.069 70.6048 127.308 71.0342 129.047 69.8957C129.907 69.3412 130.598 68.5608 131.044 67.64C131.069 67.5233 131.087 67.405 131.097 67.2859C131.096 67.2288 131.078 67.1732 131.046 67.126C131.013 67.0789 130.968 67.0421 130.915 67.0203C130.863 66.9984 130.805 66.9924 130.748 67.003C130.692 67.0136 130.64 67.0403 130.599 67.0799C130.161 67.5937 130.24 67.6841 129.817 68.2055ZM101.113 75.0295C100.935 74.9306 100.731 74.8912 100.529 74.917C99.3371 74.8895 98.1699 74.5723 97.128 73.9929C97.0938 73.9603 97.0491 73.941 97.0019 73.9385C96.9547 73.936 96.9083 73.9505 96.8708 73.9794C96.8334 74.0082 96.8076 74.0495 96.798 74.0958C96.7885 74.142 96.7958 74.1902 96.8187 74.2315C96.9203 74.3744 97.0353 74.5072 97.1622 74.6282C97.8462 75.2993 100.448 75.8625 101.114 75.4475C101.15 75.4256 101.18 75.3948 101.2 75.3581C101.22 75.3214 101.231 75.2801 101.231 75.2381C101.231 75.1961 101.22 75.1549 101.199 75.1184C101.178 75.0818 101.149 75.0512 101.113 75.0295Z" fill="#191919"/>
<path d="M102.814 72.2228C101.342 71.0745 102.374 71.8512 100.23 70.3183C100.647 69.9935 101.05 69.6525 101.439 69.2953C102.724 69.3321 104.006 69.4374 105.28 69.6107C105.578 69.6449 105.718 69.2748 105.601 69.0521C105.103 68.2188 104.4 67.526 103.56 67.0389C103.849 66.6842 104.126 66.3184 104.391 65.9414C105.858 65.8935 107.327 65.9473 108.786 66.1026C108.851 66.1018 108.915 66.0841 108.971 66.0512C109.027 66.0182 109.074 65.9713 109.106 65.9149C109.139 65.8585 109.156 65.7946 109.156 65.7295C109.156 65.6645 109.139 65.6005 109.107 65.544C108.447 64.3208 107.507 63.2713 106.364 62.4812C107.07 60.8852 107.173 60.11 107.564 59.4169C107.798 58.9936 108.171 58.6638 108.62 58.4827C109.068 58.3016 109.566 58.2802 110.028 58.422C111.785 58.8104 113.01 60.569 114.683 60.0872C114.935 60.0139 115.168 59.8877 115.367 59.717C115.561 59.5521 115.309 59.2314 115.097 59.3659C114.885 59.4817 114.653 59.5536 114.413 59.5773C114.173 59.6009 113.931 59.5758 113.701 59.5035C112.366 59.1531 111.006 57.3915 108.849 57.735C106.774 58.0656 106.664 60.0644 105.729 62.1711C105.312 62.0076 104.868 61.9255 104.421 61.9294C104.371 61.9271 104.321 61.9351 104.274 61.9527C104.227 61.9703 104.184 61.9973 104.147 62.032C104.111 62.0667 104.082 62.1084 104.062 62.1546C104.043 62.2008 104.033 62.2505 104.033 62.3007C104.033 62.3509 104.043 62.4006 104.062 62.4468C104.082 62.4929 104.111 62.5346 104.147 62.5693C104.184 62.604 104.227 62.631 104.274 62.6486C104.321 62.6663 104.371 62.6742 104.421 62.6719C104.76 62.6643 105.097 62.7224 105.414 62.8429C105.016 63.6614 104.562 64.4519 104.056 65.2088C103.426 65.1866 102.797 65.2777 102.199 65.4778C101.806 65.6595 101.374 66.1185 101.645 66.5738C101.753 66.7547 101.924 66.8519 102.5 67.2281C102.081 67.7045 101.639 68.1596 101.174 68.5916C100.708 68.6201 100.248 68.7114 99.8062 68.8629C99.4611 68.9748 99.1394 69.1489 98.857 69.3767C98.7776 69.4611 98.728 69.5691 98.7156 69.6844C98.7033 69.7996 98.7289 69.9157 98.7886 70.015C98.8657 70.1257 98.9645 70.2196 99.0789 70.2909C98.2138 70.8264 97.4049 71.4477 96.6644 72.1453C94.6299 74.2809 95.3511 76.9204 97.4578 77.4281C98.6434 77.7146 98.6814 76.8961 98.1791 76.8353C98.2095 76.8353 97.8888 76.7798 97.8226 76.7699C97.5652 76.7365 97.3173 76.6507 97.0943 76.5177C96.8713 76.3848 96.6779 76.2075 96.5261 75.9969C96.3743 75.7864 96.2672 75.5469 96.2115 75.2933C96.1558 75.0397 96.1527 74.7774 96.2023 74.5226C96.5633 72.6606 98.0696 71.9135 99.6094 70.7849C99.8268 70.6253 99.6748 70.8609 102.557 72.5504C102.76 72.6644 103.006 72.3718 102.814 72.2228ZM96.3247 75.6352C96.3308 75.6497 96.3376 75.671 96.3247 75.6352V75.6352ZM104.522 68.7838C103.73 68.6957 102.805 68.5977 102.187 68.5749C102.494 68.2638 102.792 67.9425 103.081 67.6112C103.614 67.9331 104.099 68.3278 104.522 68.7838ZM106.054 63.153C106.876 63.7084 107.563 64.44 108.065 65.2947C107.014 65.2075 105.959 65.1722 104.904 65.1891C105.326 64.534 105.71 63.8552 106.054 63.156V63.153ZM102.482 66.1725C102.811 66.0409 103.163 65.9763 103.517 65.9825C103.347 66.2125 103.17 66.439 102.985 66.6619C102.296 66.2082 102.304 66.266 102.479 66.1725H102.482ZM100.176 69.4709C99.9993 69.6153 99.8204 69.7549 99.639 69.8896L99.4627 69.7635C99.6852 69.6347 99.924 69.5363 100.173 69.4709H100.176ZM88.5263 142.746C88.5263 142.814 88.5535 142.879 88.6018 142.928C88.6501 142.976 88.7156 143.003 88.784 143.003C88.8523 143.003 88.9178 142.976 88.9661 142.928C89.0145 142.879 89.0416 142.814 89.0416 142.746C89.2605 140.944 88.9512 131.177 88.8524 130.494C88.8358 130.437 88.7995 130.388 88.7499 130.356C88.7003 130.323 88.6408 130.31 88.5822 130.318C88.5236 130.326 88.4697 130.354 88.4305 130.399C88.3912 130.443 88.3691 130.5 88.3682 130.559C88.334 131.042 88.4746 142.248 88.5263 142.746Z" fill="#191919"/>
<path d="M110.839 116.234C108.261 115.741 105.975 115.417 104.563 115.157C104.361 115.12 104.09 115.085 103.993 115.265C103.868 115.502 104.084 115.696 104.354 115.746C104.528 115.778 108.833 116.461 110.282 116.599C110.303 117.258 110.377 117.913 110.504 118.56C110.103 118.694 112.152 117.716 89.072 128.939C88.5142 128.695 59.9572 123.513 59.8804 123.499C59.8717 122.836 59.8179 122.173 59.7193 121.517C60.5925 121.308 67.0305 118.312 68.0793 117.337C68.12 117.294 68.1456 117.239 68.1524 117.18C68.1591 117.121 68.1467 117.061 68.1169 117.01C68.087 116.959 68.0414 116.919 67.9869 116.895C67.9323 116.872 67.8717 116.867 67.814 116.881C67.3162 117.033 66.4202 117.57 64.4275 118.567C59.4541 121.054 59.3682 120.704 59.1599 121.701C59.0754 122.297 59.0482 122.899 59.0786 123.5C59.0789 123.557 59.0914 123.614 59.1153 123.665C59.1392 123.717 59.1739 123.763 59.2171 123.801C59.2603 123.838 59.311 123.866 59.3657 123.882C59.4205 123.898 59.4781 123.902 59.5346 123.894C59.7626 123.941 60.442 124.075 60.5568 124.097C60.4048 125.658 60.3987 134.481 60.4261 134.85C60.4171 135.018 60.4511 135.185 60.5249 135.336C60.632 135.64 60.936 135.593 61.0037 135.412C61.1263 135.184 61.1779 134.924 61.1519 134.666C61.1914 133.945 61.0409 124.269 61.0341 124.193C61.1101 124.208 88.1167 129.361 88.9322 129.395C89.3623 129.413 109.339 119.72 109.417 119.681C109.331 121.153 109.608 132.539 109.622 132.655C109.774 133.979 110.14 133.204 107.369 135.13C87.5467 148.903 89.357 148.006 88.7186 147.837C88.6426 147.817 65.6237 142.739 65.5477 142.73C65.1277 142.662 64.7038 142.619 64.2785 142.602C64.0407 142.581 64.0004 142.951 64.223 143.012C64.8158 143.17 65.211 143.325 65.3387 143.357C65.4147 143.377 88.1729 148.569 89.0317 148.619C89.1495 148.625 109.67 134.359 110.053 133.999C110.255 133.864 110.053 133.966 110.146 132.647C110.182 132.144 110.034 121.836 110.024 121.405C110.024 120.755 109.965 120.107 109.847 119.467C110.195 119.323 110.523 119.134 110.824 118.906C111.236 118.604 111.049 116.274 110.839 116.234Z" fill="#191919"/>
<path d="M76.9546 124.28C85.9127 125.891 87.5034 126.351 88.6137 126.369C88.6464 126.369 98.1548 122.056 98.5697 121.792C98.857 121.611 98.987 121.558 99.0668 121.331C99.0792 121.283 99.0724 121.231 99.0477 121.188C99.023 121.145 98.9824 121.112 98.9345 121.098C98.7405 121.062 98.5399 121.095 98.3676 121.191C98.2916 121.22 88.901 125.529 88.6008 125.737C88.5248 125.717 76.988 123.594 76.8124 123.616C76.726 123.631 76.6405 123.651 76.5563 123.676C76.3374 123.728 76.2189 124.147 76.9546 124.28Z" fill="#191919"/>
<path d="M41.1707 141.54C40.151 140.417 39.0415 139.379 37.8533 138.435C37.275 137.97 36.9125 138.494 36.3744 139.08C35.9954 139.56 35.6493 140.066 35.3385 140.593C35.161 140.839 34.9978 141.095 34.8498 141.36C34.8255 141.399 34.8164 141.446 34.8244 141.491C34.8324 141.536 34.8569 141.577 34.8931 141.605C34.9294 141.634 34.9748 141.648 35.0207 141.644C35.0666 141.641 35.1097 141.621 35.1417 141.588C35.525 141.167 35.9463 140.782 36.4002 140.438C36.7422 140.206 37.0692 139.952 37.3791 139.678C37.8875 140.19 40.0703 142.211 40.5521 142.349C40.6874 142.367 40.9412 142.489 41.151 142.261C41.2262 142.184 41.2744 142.085 41.2881 141.979C41.3019 141.873 41.2804 141.765 41.227 141.672C41.2414 141.74 41.2521 141.734 41.1707 141.54ZM51.3319 141.17C52.231 141.463 53.2167 141.741 54.2412 141.984C54.4259 141.803 54.6083 141.618 54.8051 141.452C58.7237 138.133 58.6447 138.514 58.4037 138.328C57.7763 137.855 57.1404 137.393 56.4961 136.942C56.0234 137.316 51.7629 140.836 51.3319 141.17ZM80.1679 107.647C79.1481 106.524 78.0386 105.486 76.8505 104.543C76.2721 104.077 75.9096 104.6 75.3723 105.187C74.9929 105.667 74.6465 106.172 74.3356 106.699C74.1581 106.946 73.9949 107.203 73.8469 107.469C73.8243 107.508 73.8166 107.553 73.8252 107.598C73.8338 107.642 73.8581 107.682 73.8936 107.71C73.9292 107.737 73.9736 107.751 74.0186 107.749C74.0637 107.747 74.1064 107.728 74.1388 107.697C74.5221 107.275 74.9434 106.891 75.3973 106.547C75.7395 106.314 76.0664 106.061 76.3762 105.787C76.8847 106.299 79.0674 108.32 79.5492 108.457C79.6845 108.476 79.9383 108.597 80.1481 108.368C80.2232 108.292 80.2713 108.193 80.2851 108.087C80.2988 107.98 80.2774 107.872 80.2241 107.779C80.2385 107.844 80.2492 107.844 80.1679 107.647ZM87.267 106.129C88.0777 106.474 88.898 106.789 89.7279 107.075C90.8405 105.908 93.6373 103.634 94.8959 102.628C94.222 102.155 93.5328 101.705 92.8294 101.278C91.675 102.296 88.3675 105.198 87.267 106.129ZM90.3283 107.276C91.2274 107.57 92.2131 107.849 93.2376 108.091C93.4223 107.909 93.6046 107.725 93.8015 107.559C97.72 104.24 97.641 104.622 97.4001 104.436C96.7727 103.962 96.1368 103.5 95.4925 103.05C95.0175 103.425 90.7706 106.932 90.3283 107.276Z" fill="#EF233C"/>
<path d="M25.6173 124.145C25.7997 124.487 25.9786 124.83 26.1539 125.174C26.3287 125.519 26.5422 125.845 26.7338 126.179C28.2743 128.863 28.237 129.309 28.7371 129.174C28.8398 129.145 28.9274 129.078 28.9818 128.986C29.1468 128.703 28.9104 128.394 28.6702 127.948C27.9362 126.486 27.0527 125.103 26.0338 123.823C25.8628 123.602 25.46 123.853 25.6173 124.145ZM18.4779 129.248C18.8188 129.537 19.1928 129.785 19.592 129.986C24.228 132.591 24.2425 132.7 24.5845 132.494C24.8125 132.359 24.8398 131.998 24.2151 131.663C19.5487 129.155 19.0471 128.916 18.7036 128.862C18.6547 128.849 18.6029 128.853 18.5563 128.873C18.5097 128.892 18.4706 128.926 18.4451 128.97C18.4196 129.013 18.409 129.064 18.4149 129.114C18.4208 129.164 18.4429 129.211 18.4779 129.248ZM16.7664 137.434C17.7766 137.541 18.7951 137.546 19.8064 137.45C20.3589 137.408 24.111 137.044 24.4538 136.656C24.5092 136.6 24.5471 136.529 24.5628 136.451C24.5786 136.374 24.5716 136.293 24.5427 136.22C24.5137 136.146 24.4641 136.082 24.3998 136.036C24.3355 135.99 24.2592 135.964 24.1802 135.96C24.0145 135.938 22.7681 136.202 21.6326 136.368C20.4812 136.537 16.8446 136.906 16.7686 136.913C16.6995 136.912 16.6331 136.939 16.584 136.988C16.5349 137.037 16.5071 137.103 16.5068 137.172C16.5065 137.241 16.5337 137.308 16.5824 137.357C16.631 137.406 16.6972 137.434 16.7664 137.434ZM86.0176 73.8105C84.9148 60.7544 83.5316 58.7062 76.0828 56.5091C73.489 55.7445 70.8525 55.1274 68.1971 54.6167C62.3293 53.5327 56.4051 52.7806 50.4526 52.364C50.4526 52.0213 50.4526 51.68 50.4594 51.3357C52.1436 51.9901 54.0459 51.2172 55.6768 50.7072C57.3979 50.1734 59.0457 49.4269 60.5819 48.485C64.8075 45.8843 71.1497 39.4896 73.4137 36.7757C73.59 36.5545 73.5498 36.4435 73.3377 36.1418C73.6327 35.9199 73.9684 35.7583 74.3257 35.6661C75.3137 35.3833 78.3819 34.9555 79.4056 34.8301C80.481 34.6948 81.6529 34.5169 82.4083 33.6536C83.6806 32.2012 82.6979 30.4471 80.918 30.0322C80.279 29.9011 79.6211 29.8913 78.9784 30.0033C78.9171 30.0033 78.8582 30.0277 78.8148 30.0711C78.7714 30.1145 78.747 30.1733 78.747 30.2347C78.747 30.2961 78.7714 30.355 78.8148 30.3984C78.8582 30.4418 78.9171 30.4661 78.9784 30.4661C80.1466 30.5817 81.2197 30.6265 81.9067 31.4473C82.0286 31.6124 82.1116 31.8029 82.1495 32.0046C82.1875 32.2063 82.1794 32.414 82.126 32.6121C82.0725 32.8102 81.975 32.9937 81.8407 33.1489C81.7064 33.3041 81.5388 33.427 81.3504 33.5084C80.4491 34.0556 79.5059 33.9317 75.7538 34.5724C74.7397 34.6496 73.7581 34.9647 72.8886 35.492C72.0991 34.2061 71.46 32.8336 70.984 31.4017C70.3076 29.5367 70.3266 29.3155 70.0591 28.9484C69.5172 28.2059 68.4768 28.7265 67.7738 28.9271C62.0048 30.5811 56.415 32.8057 51.0872 35.568C50.3821 33.5569 49.5688 31.5853 48.6506 29.6621C46.8631 25.9267 44.8096 22.3569 40.8059 21.1972C37.7028 20.2973 34.444 21.0254 31.5924 22.5735C31.2124 22.7787 30.8416 22.9969 30.4654 23.2089C30.3491 22.5705 30.3939 22.7704 30.3605 22.5614C34.8787 22.0218 34.5116 17.1912 33.763 12.7209C34.4948 12.3982 35.1972 12.0124 35.8621 11.568C37.2894 10.5268 38.9158 9.14813 37.7188 7.79989C37.0409 7.03989 35.9472 7.10145 34.9744 7.26789C33.2926 1.43869 25.71 -1.47211 21.3818 2.78389C18.5843 5.53889 18.3814 9.83821 20.1035 13.1853C20.1751 13.3479 20.2665 13.501 20.3756 13.6413C20.3807 13.6991 20.4009 13.7546 20.4343 13.8021C20.4676 13.8496 20.5129 13.8874 20.5656 13.9118C18.9149 15.3102 19.6004 17.9398 21.4723 18.2438C22.6229 18.4338 22.2247 17.879 22.2923 18.6763C22.4166 20.139 22.336 21.6119 22.0529 23.0523C21.3248 22.7385 20.5709 22.4185 19.8208 22.1487C16.7565 21.0513 13.5128 20.9167 11.2191 23.2127C8.76965 25.6675 7.01861 31.483 6.14841 34.8316C4.56989 40.9009 2.91233 47.88 5.01601 53.8316C6.96693 59.3492 11.8294 63.0967 16.9412 65.9156C19.6345 67.4354 22.5122 68.6025 25.5033 69.388C25.8392 73.3674 26.4153 77.3308 26.9116 81.2934C29.0274 98.1973 30.5087 114.651 35.3104 129.758C35.451 130.199 35.8857 130.077 36.2018 130.024C36.1593 130.342 36.1357 131.972 36.1403 132.292C36.1449 132.399 36.1904 132.5 36.2673 132.573C36.3443 132.647 36.4468 132.688 36.5533 132.688C36.6599 132.688 36.7624 132.647 36.8394 132.573C36.9163 132.5 36.9618 132.399 36.9664 132.292C36.9664 132.064 36.9542 130.24 36.8866 129.911C42.1466 129.047 41.3881 129.195 41.6746 129.128C41.924 130.241 42.2859 131.326 42.7546 132.366C42.8046 132.437 42.8773 132.489 42.9606 132.512C43.044 132.536 43.133 132.531 43.2128 132.497C43.2927 132.463 43.3586 132.403 43.3997 132.327C43.4407 132.251 43.4545 132.163 43.4386 132.077C43.0017 131.043 42.6244 129.984 42.3084 128.907C42.5846 128.747 42.8216 128.528 43.0019 128.265C43.1822 128.002 43.3013 127.702 43.3504 127.387C43.6716 125.964 43.8707 124.517 43.9455 123.061C45.7892 97.5741 44.6181 87.7633 44.5421 82.7412C44.4843 78.9078 44.7921 74.3721 46.531 70.9156C47.2348 69.5157 48.1308 69.9162 49.8826 70.1701L69.9291 73.0953C70.4333 79.5841 71.7072 85.9901 73.7238 92.1781C74.3234 94.0281 75.0161 95.8466 75.7994 97.6266C75.8592 97.7709 75.9524 97.899 76.0713 98.0003C76.1902 98.1016 76.3314 98.1733 76.4834 98.2095C76.4279 98.3577 76.4553 98.2338 76.358 98.8897C76.2607 99.5456 76.8998 99.6018 77.042 99.1975C77.1057 98.9059 77.128 98.6068 77.1081 98.3091C77.8111 98.3455 81.5921 97.9519 82.1796 97.8531C82.0078 99.1542 82.957 98.8783 82.9274 98.4459C82.9152 98.2794 82.7936 97.9937 82.7754 97.7315C83.4207 97.5491 83.6114 97.1402 83.7816 96.498C85.9955 88.2117 87.0337 85.8215 86.0176 73.8105ZM44.3886 32.034C47.063 35.6227 49.7253 41.9292 50.6076 48.6925C50.6454 49.0048 50.6351 49.3211 50.5773 49.6303C50.5755 49.6906 50.5524 49.7483 50.5121 49.7932C50.4718 49.838 50.4168 49.8671 50.357 49.8752C50.2973 49.8834 50.2365 49.87 50.1857 49.8375C50.1349 49.805 50.0972 49.7556 50.0794 49.6979C50.0293 49.5338 49.9533 49.3818 49.91 49.2161C49.409 45.633 48.4908 42.1207 47.174 38.7509C46.2423 36.5273 45.1922 34.3551 44.0283 32.2438C44.0146 32.2201 44.0056 32.194 44.0019 32.1669C43.9982 32.1397 43.9999 32.1122 44.0069 32.0857C44.0139 32.0592 44.026 32.0344 44.0426 32.0126C44.0592 31.9908 44.0799 31.9725 44.1036 31.9588C44.1272 31.945 44.1534 31.936 44.1805 31.9324C44.2076 31.9287 44.2352 31.9304 44.2617 31.9374C44.2881 31.9444 44.3129 31.9565 44.3347 31.9731C44.3565 31.9897 44.3748 32.0104 44.3886 32.034ZM30.4175 20.4661C29.6301 20.9753 29.054 20.8096 28.7288 20.3065C28.6368 20.1755 28.5766 20.0249 28.5528 19.8666C28.5291 19.7083 28.5425 19.5467 28.592 19.3945C28.5991 19.37 28.6133 19.3481 28.6327 19.3315C28.652 19.3149 28.6758 19.3043 28.7011 19.301C28.7264 19.2977 28.7521 19.3019 28.7751 19.3129C28.7981 19.324 28.8174 19.3415 28.8306 19.3633C28.8815 19.4834 28.9446 19.5959 28.9948 19.7159C29.0966 19.9629 29.2228 20.2662 29.567 20.2555C30.023 20.2411 30.5687 19.6863 30.6744 19.5951C30.954 19.3489 31.3812 19.8489 30.4175 20.4661ZM29.8794 23.5213C27.2764 24.8725 25.5368 24.4173 22.7582 23.3898C22.8166 23.1795 22.8605 22.9654 22.8897 22.7491C22.9991 22.1077 22.4709 23.1078 29.7943 22.6138C29.8133 22.9619 29.8414 23.2226 29.8794 23.5213ZM21.128 4.15265C24.6825 -0.643706 32.1898 1.45009 34.2213 7.42749C31.7756 8.01041 21.7033 12.616 21.4715 12.8744C21.188 13.0082 21.0854 13.0454 20.7746 13.2157C19.396 10.1764 19.1414 6.88637 21.128 4.15265ZM21.4723 17.518C21.125 17.4183 20.8246 17.1982 20.6249 16.8971C20.4676 16.6483 20.3689 16.3671 20.3359 16.0746C20.303 15.7821 20.3369 15.486 20.4349 15.2084C20.5329 14.9309 20.6926 14.6792 20.9019 14.4723C21.1112 14.2653 21.3647 14.1085 21.6433 14.0137C22.3336 14.2308 22.9151 14.7033 23.2689 15.3345C23.3183 15.4148 23.3948 15.4747 23.4845 15.5033C23.5742 15.532 23.6713 15.5275 23.758 15.4907C23.8447 15.4539 23.9154 15.3873 23.9571 15.3028C23.9989 15.2184 24.009 15.1218 23.9856 15.0305C23.7466 14.3075 23.6566 13.5435 23.7211 12.7847C23.7333 12.5879 23.0478 12.9785 30.0892 9.78957C31.4283 9.18157 35.2572 7.40165 36.7506 8.02865C37.392 8.29769 37.5767 8.85021 37.0416 9.53877C36.0218 10.545 34.8899 11.4309 33.668 12.179C33.5377 11.4649 33.3843 10.7552 33.2082 10.051C33.1817 9.84309 33.1053 9.64466 32.9855 9.47265C32.962 9.43539 32.9271 9.40665 32.8861 9.39067C32.845 9.37469 32.7999 9.37231 32.7573 9.38388C32.7148 9.39545 32.6771 9.42036 32.6498 9.45494C32.6224 9.48952 32.6069 9.53196 32.6055 9.57601C32.6952 10.4544 32.836 11.3269 33.0273 12.1889C32.8396 12.0654 32.6252 11.9882 32.4018 11.9638C32.1784 11.9394 31.9524 11.9684 31.7424 12.0485C31.5324 12.1286 31.3445 12.2575 31.1941 12.4244C31.0436 12.5914 30.9351 12.7918 30.8773 13.0089C30.6234 12.9898 30.3682 13.0021 30.1173 13.0454C29.8683 12.5662 29.5599 12.1204 29.1992 11.7185C29.0753 11.5915 28.8101 11.7185 28.883 11.9031C29.0696 12.3474 29.2925 12.7755 29.5496 13.183C29.1452 13.3198 28.7727 13.5369 28.4544 13.8214C28.3364 13.6242 28.1687 13.4614 27.968 13.3494C26.7224 12.6593 25.4197 14.1619 25.9677 15.3315C26.4336 16.3256 28.7326 16.7094 28.6672 14.5373C28.6588 14.2774 28.6125 14.3853 28.7067 14.3047C29.037 14.0336 29.4273 13.8454 29.8452 13.756C30.3466 14.6823 30.7785 15.6446 31.1372 16.6349C30.7363 16.6389 30.337 16.5833 29.9524 16.47C29.8717 16.4478 29.7856 16.4586 29.7129 16.4999C29.6402 16.5412 29.5869 16.6097 29.5648 16.6904C29.5426 16.771 29.5534 16.8571 29.5947 16.9298C29.636 17.0025 29.7045 17.0558 29.7852 17.078C30.3037 17.217 30.8419 17.2684 31.3774 17.23C31.446 17.2172 31.5111 17.19 31.5684 17.1501C31.6257 17.1103 31.6739 17.0588 31.7098 16.9989C31.7457 16.9391 31.7686 16.8723 31.7767 16.803C31.7849 16.7337 31.7783 16.6635 31.7574 16.5969C31.3967 15.6015 30.965 14.6332 30.4654 13.6998C30.5538 13.6947 30.6424 13.6993 30.7298 13.7135C30.9145 13.7271 30.7352 13.6861 30.9244 14.0889C31.0389 14.2913 31.1978 14.4651 31.3892 14.5971C31.5806 14.7292 31.7995 14.816 32.0294 14.8512C32.2592 14.8863 32.4941 14.8688 32.7162 14.7999C32.9383 14.7311 33.1419 14.6127 33.3116 14.4537C33.4073 15.3839 33.4978 16.492 33.4947 17.4268C32.9931 17.2672 30.1994 18.8708 23.8473 17.4063C23.6659 17.3469 23.4742 17.3252 23.2841 17.3425C23.0364 16.8485 22.461 17.7787 21.4723 17.518ZM16.8834 52.212C16.9955 51.905 16.9816 51.5661 16.8448 51.2692C16.708 50.9723 16.4593 50.7416 16.153 50.6274C16.0569 50.5982 15.9756 50.5332 15.9259 50.4458C15.8763 50.3584 15.8621 50.2553 15.8863 50.1577C16.2944 47.4134 17.4063 41.1061 17.6723 40.451C17.8114 40.1083 17.844 39.821 18.1161 39.8537C18.7583 39.9297 17.9938 41.3182 16.6721 50.0202C17.057 50.2355 17.3619 50.5695 17.5415 50.9723C17.7211 51.3751 17.7656 51.8252 17.6685 52.2553C22.3919 52.9568 26.5681 55.4473 30.346 58.3635C30.821 58.7298 30.2837 59.2831 29.9546 59.03C19.6247 51.0477 15.941 54.0535 16.8834 52.212ZM85.1998 86.9889C84.8692 89.1571 84.2498 91.2221 83.0832 95.7615C82.8666 96.6105 82.9236 96.862 82.3734 96.9707C80.7129 97.2407 79.038 97.4132 77.3574 97.4875C77.0893 97.5218 76.8171 97.4766 76.5746 97.3575C76.5533 97.3416 76.5487 97.3385 76.5464 97.3135C73.3732 89.4574 71.4321 81.1585 70.7917 72.71C70.7905 72.6121 70.7579 72.5173 70.6986 72.4394C70.6394 72.3615 70.5566 72.3048 70.4626 72.2775L49.8773 69.2831C48.5222 69.0863 47.1033 68.6675 46.1677 69.8357C45.8019 70.3513 45.5129 70.9173 45.3097 71.516C42.5349 78.356 44.0815 86.143 44.115 96.6652C44.134 102.284 43.507 121.897 42.6755 126.297C42.6522 126.902 42.451 127.487 42.0972 127.979C41.7932 128.253 41.8084 128.192 36.0704 129.125C33.8271 121.731 32.1545 114.175 31.0673 106.525C30.4661 102.621 26.1774 69.8531 26.1273 69.5423C27.8015 69.9584 29.5225 70.1561 31.2474 70.1305C30.7057 71.0345 30.0545 71.8682 29.3086 72.6127C28.9849 72.9319 28.785 73.0505 28.8124 73.2891C28.8151 73.3707 28.8433 73.4494 28.893 73.5142C28.9428 73.5789 29.0116 73.6265 29.0898 73.6501C29.3824 73.7139 29.5344 73.5338 29.8148 73.2587C30.8678 72.2274 31.7184 71.0082 32.3228 69.6639C33.6429 68.2731 34.2806 63.4463 31.385 60.0727C32.5379 57.9401 34.789 56.4247 36.9246 55.4207C42.5767 52.7676 49.7686 53.3057 50.2786 52.9325C53.4219 53.5405 63.3506 54.0489 73.2002 56.5805C80.6094 58.4805 83.1091 59.3841 84.3258 67.0434C85.1808 72.4227 85.956 82.0261 85.1998 86.9866V86.9889ZM145.952 92.4061C145.77 92.4137 145.812 92.5224 145.912 92.2207C146.08 91.7145 146.02 91.2973 145.959 88.9124C145.956 88.8355 145.933 88.7608 145.892 88.6958C145.084 88.5963 144.828 88.537 139.074 87.5353C139.023 87.6781 138.932 87.8034 138.812 87.896C138.692 87.9887 138.548 88.045 138.397 88.0582C137.826 88.1342 137.257 87.6379 136.867 87.2891C136.551 87.0086 137.076 87.2176 133.281 86.5291C130.258 87.9085 128.182 94.8997 124.951 98.4611C123.707 99.8336 122.504 100.907 122.913 103.077C123.271 104.971 124.775 105.927 126.653 106.25C130.619 106.934 134.214 104.913 137.338 102.419C139.01 101.082 143.656 97.052 144.267 96.4509C145.294 95.4408 146.273 94.2583 146.35 92.8029C146.349 92.6976 146.307 92.597 146.233 92.5227C146.158 92.4484 146.057 92.4065 145.952 92.4061ZM131.968 89.9741C132.307 89.9048 132.656 89.8988 132.998 89.9567C133.687 90.0627 134.342 90.3307 134.908 90.7387C135.472 91.1468 135.556 91.2791 135.639 91.5534C135.7 91.751 135.481 91.8726 135.319 91.7997C135.155 91.7355 135.01 91.631 134.897 91.4957C134.094 90.7918 133.08 90.3743 132.014 90.3085C131.835 90.2941 131.767 89.9992 131.969 89.9703L131.968 89.9741ZM130.078 93.2573C131.623 92.717 134.176 94.0455 133.802 94.5372V94.5281C133.547 94.9985 133.094 94.1769 131.797 93.8091C131.342 93.6904 130.875 93.6261 130.405 93.6176C130.272 93.61 130.053 93.6358 129.958 93.5233C129.874 93.4207 129.94 93.23 130.079 93.252L130.078 93.2573ZM128.385 96.2745C128.908 96.0733 129.472 96.0061 130.027 96.0791C130.582 96.1521 131.11 96.363 131.563 96.6925C131.875 96.8703 132.166 97.0847 132.428 97.3309C132.471 97.3768 132.496 97.4364 132.499 97.4993C132.502 97.5621 132.483 97.624 132.444 97.6738C132.406 97.7236 132.351 97.758 132.289 97.771C132.228 97.7839 132.164 97.7745 132.109 97.7444C130.942 97.1052 130.496 96.4387 128.461 96.5603C128.425 96.5626 128.39 96.5524 128.361 96.5315C128.333 96.5107 128.312 96.4805 128.304 96.4461C128.295 96.4118 128.298 96.3754 128.314 96.3434C128.329 96.3114 128.355 96.2857 128.387 96.2707L128.385 96.2745ZM123.859 101.272C123.908 100.588 124.754 99.7911 125.484 98.9809C126.077 98.7806 126.704 98.7085 127.327 98.7694C127.949 98.8303 128.551 99.0229 129.093 99.3343C129.838 99.6245 130.462 100.158 130.866 100.847C131.27 101.537 131.429 102.343 131.318 103.134C129.174 104.207 123.673 103.916 123.861 101.268L123.859 101.272ZM130.905 103.336C130.896 103.338 130.888 103.341 130.88 103.345C130.83 103.365 130.88 103.344 130.906 103.332L130.905 103.336ZM145.54 92.9853C145.54 93.0027 145.54 93.0248 145.54 92.9853V92.9853ZM145.54 92.9632C145.348 94.4999 143.649 95.9827 142.463 97.0064C137.487 101.302 134.483 104.226 130.656 105.258C127.89 106.001 124.18 105.714 123.641 102.842C124.879 104.492 127.869 104.604 129.959 104.296C130.893 104.159 131.029 104.197 132.875 103.121C134.986 101.905 137.007 100.539 138.922 99.0333C139.004 98.9649 142.864 95.7152 144.332 94.2256C145.699 92.8409 145.556 92.7557 145.54 92.9632Z" fill="#191919"/>
<path d="M119.885 84.2726C117.575 86.6461 116.056 90.8725 114.099 93.8273C112.883 95.6688 111.072 97.3461 110.944 99.6854C110.858 100.682 111.171 101.672 111.814 102.438C112.622 103.315 113.872 103.46 114.991 103.598C117.271 103.881 120.272 103.704 121.82 102.022C121.877 101.963 121.91 101.886 121.914 101.804C121.918 101.722 121.893 101.642 121.843 101.577C121.794 101.512 121.722 101.468 121.642 101.451C121.562 101.434 121.479 101.447 121.407 101.486C120.246 102.409 118.812 102.92 117.329 102.938C116.158 102.996 113.448 102.884 112.545 101.999C112.195 101.646 111.958 101.196 111.867 100.707C113.924 102.162 116.509 102.02 118.916 101.21C127.191 98.4246 123.78 95.0851 132.596 86.4097C118.832 83.9846 119.987 84.167 119.885 84.2726ZM119.949 99.9879C118.249 100.824 116.348 101.164 114.464 100.969C113.493 100.839 112.574 100.458 111.796 99.864C111.823 98.4512 112.637 97.2709 113.53 96.0845C114.018 95.8409 114.545 95.6836 115.087 95.6194C115.7 95.5539 116.32 95.618 116.906 95.8076C117.493 95.9973 118.033 96.3082 118.491 96.7202C118.95 97.1322 119.316 97.636 119.568 98.199C119.819 98.762 119.948 99.3715 119.949 99.9879ZM117.268 95.9044C117.284 95.9113 117.306 95.9189 117.268 95.9044V95.9044ZM120.326 94.0318C119.739 94.0751 119.309 92.9678 116.481 93.1456C116.333 93.1547 116.261 92.9176 116.405 92.8568C117.104 92.5371 117.895 92.4831 118.631 92.7048C120.384 93.1 120.734 94.0014 120.325 94.0318H120.326ZM121.94 91.5451C121.602 91.5724 121.527 91.0822 119.999 90.7091C119.277 90.5746 118.547 90.4883 117.813 90.4507C117.786 90.4413 117.763 90.4248 117.745 90.403C117.728 90.3811 117.716 90.3548 117.713 90.3269C117.709 90.299 117.713 90.2707 117.725 90.245C117.736 90.2194 117.755 90.1974 117.778 90.1816C118.678 89.7629 120.4 90.1109 121.377 90.5479C122.3 90.9606 122.237 91.5207 121.94 91.5451H121.94ZM122.738 88.2611C122.43 88.309 122.289 88.2163 121.855 88.0437C121.077 87.6519 120.189 87.54 119.339 87.7268C119.3 87.7265 119.263 87.7122 119.234 87.6866C119.205 87.6609 119.186 87.6257 119.181 87.5872C119.175 87.5488 119.184 87.5097 119.206 87.4773C119.227 87.4449 119.259 87.4212 119.296 87.4107C119.72 87.2142 120.183 87.1188 120.65 87.132C121.117 87.1452 121.574 87.2666 121.986 87.4867C122.3 87.5566 122.591 87.7076 122.829 87.9244C122.909 88.027 122.906 88.236 122.74 88.2611H122.738Z" fill="#191919"/>
<path d="M103.31 113.98C102.839 113.206 102.117 112.618 101.264 112.314C100.844 112.224 100.889 112.321 100.909 112.198C101.218 110.32 100.496 107.899 98.9155 107.239C98.7438 107.163 98.7635 107.239 98.7833 107.153C98.8637 106.761 98.8381 106.354 98.7091 105.974C98.5801 105.595 98.3523 105.257 98.0491 104.995C97.9731 105.057 94.3107 107.988 93.9269 108.247C95.3565 108.56 97.0269 108.919 98.1829 108.019C98.5887 107.703 98.3744 107.699 98.5842 107.821C99.6033 108.417 100.516 110.309 100.051 112.338C98.3113 112.681 98.759 113.174 92.0892 113.154C83.3903 113.13 83.3979 111.541 79.7331 111.309C76.6597 111.114 73.1614 112.241 70.4938 110.473C70.6234 109.036 71.0136 107.634 71.6452 106.337C72.8232 103.337 72.4052 102.792 72.8019 101.199C72.8655 100.728 73.0676 100.287 73.3824 99.9309C73.6973 99.5749 74.1108 99.3205 74.5705 99.1998C76.5161 99.0341 77.5907 101.677 80.1048 101.31C81.7874 101.065 82.4767 99.3153 83.7224 99.5342C83.9914 99.5813 83.8371 99.4916 83.2352 100.079C82.0595 101.227 82.4859 102.79 83.4967 103.86C83.6281 103.737 87.9168 99.8154 87.9951 99.7455C88.1266 99.9455 88.2846 100.127 88.4648 100.284C88.3318 100.401 84.0005 104.218 83.9352 104.274C84.7373 104.902 85.6186 105.421 86.5564 105.819C87.1827 105.277 84.5439 107.567 92.1455 100.879C91.6818 100.618 91.208 100.377 90.725 100.154C91.5428 99.3799 92.473 98.3083 92.4639 97.1812C92.454 96.251 91.7738 95.6354 91.0602 95.8573C90.7777 95.9857 90.5251 96.1716 90.3185 96.4031C90.1118 96.6345 89.9557 96.9066 89.8601 97.2018C89.8206 96.844 89.761 96.4888 89.6815 96.1378C89.2362 94.2142 87.4228 94.3898 87.0383 95.776C86.8931 96.9002 87.0879 98.0422 87.5976 99.0546C87.2153 98.9665 86.8232 98.9274 86.431 98.9384C85.84 98.8036 85.2212 98.8655 84.6686 99.1147C83.0802 98.135 82.1005 99.2842 81.0464 100.043C79.1122 101.434 77.7397 99.5707 76.32 98.816C75.9735 98.5866 75.5789 98.4403 75.1666 98.3885C74.7544 98.3366 74.3358 98.3807 73.9433 98.5171C73.5509 98.6535 73.1952 98.8787 72.9041 99.1751C72.6129 99.4714 72.3941 99.831 72.2646 100.226C71.9142 101.294 71.7027 102.403 71.6353 103.525C71.288 105.648 69.9785 107.58 69.7034 109.789C69.4108 109.751 66.9446 111.25 66.535 114.121C66.4286 114.869 66.5076 115.357 67.1924 115.731C68.3126 116.343 70.2012 116.469 71.4628 116.546C75.5265 116.795 77.9905 117.219 79.4785 115.809C80.4103 116.978 82.077 117.158 83.4837 117.227C87.824 117.44 92.1736 117.361 96.5033 116.992C99.5927 116.736 104.989 116.412 103.31 113.98ZM89.9012 99.3799C90.0372 98.6686 90.6521 96.6888 91.3087 96.5459L91.3938 96.5413C91.5034 96.5914 91.595 96.674 91.6562 96.7778C91.7174 96.8817 91.7452 97.0018 91.7358 97.122C91.7541 98.1274 90.7478 99.1641 89.9992 99.8367C89.8153 99.7622 89.8624 99.8701 89.9012 99.3799ZM88.2406 95.4446C88.3581 95.4345 88.4748 95.4714 88.5651 95.5472C89.2643 96.0131 89.2354 98.8494 89.1115 99.706L88.9269 99.8739C87.986 98.876 87.0261 95.8186 88.2406 95.4446ZM100.138 111.881C100.138 111.851 100.138 111.864 100.138 111.881V111.881ZM48.2699 140.023C49.0806 140.367 49.9009 140.682 50.7308 140.968C51.8434 139.801 54.6402 137.527 55.8988 136.522C55.2248 136.049 54.5353 135.598 53.8316 135.171C52.6566 136.207 49.3704 139.092 48.2699 140.023Z" fill="#EF233C"/>
<path d="M64.3127 147.872C63.8413 147.1 63.1192 146.512 62.2668 146.207C61.8465 146.117 61.8921 146.215 61.9119 146.092C62.2197 144.222 61.503 141.794 59.9184 141.132C59.7467 141.06 59.7664 141.132 59.7854 141.047C59.8663 140.654 59.8409 140.247 59.712 139.868C59.5831 139.489 59.3553 139.15 59.052 138.888C58.976 138.95 55.3136 141.881 54.9298 142.141C56.3563 142.452 58.0283 142.814 59.1858 141.913C59.5916 141.596 59.3773 141.592 59.5871 141.715C60.6184 142.318 61.5159 144.215 61.0539 146.231C59.3142 146.574 59.7619 147.067 53.0913 147.047C44.3931 147.023 44.4007 145.434 40.736 145.203C37.6626 145.007 34.1643 146.134 31.4967 144.367C31.6259 142.929 32.0158 141.527 32.6473 140.23C33.8261 137.23 33.4073 136.686 33.8041 135.093C33.8676 134.622 34.0696 134.18 34.3845 133.824C34.6993 133.468 35.1128 133.214 35.5726 133.093C37.5182 132.927 38.5928 135.57 41.1077 135.203C42.7895 134.958 43.4796 133.209 44.7245 133.427C44.9943 133.474 44.84 133.385 44.2381 133.972C43.0624 135.12 43.4903 136.684 44.4988 137.754C44.631 137.631 48.9197 133.708 48.998 133.638C49.1294 133.838 49.2872 134.02 49.4669 134.178C49.3347 134.295 45.0034 138.111 44.9381 138.167C45.7401 138.795 46.6215 139.315 47.5593 139.712C48.1878 139.167 45.5423 141.466 53.1476 134.772C52.6749 134.508 52.2128 134.271 51.7271 134.048C52.5457 133.274 53.4789 132.203 53.4668 131.076C53.4516 129.676 51.8769 128.856 50.8623 131.096C50.8232 130.738 50.7636 130.383 50.6837 130.032C50.2391 128.108 48.4257 128.284 48.0411 129.67C47.8956 130.794 48.0904 131.936 48.6005 132.948C48.2181 132.861 47.8261 132.821 47.4339 132.832C46.8429 132.698 46.2242 132.76 45.6715 133.008C43.054 131.395 42.5167 135.238 39.7526 134.256C39.0526 134.006 38.1406 133.145 37.3206 132.71C36.9742 132.48 36.5795 132.334 36.1672 132.282C35.755 132.23 35.3364 132.274 34.9439 132.411C34.5515 132.547 34.1958 132.772 33.9047 133.069C33.6135 133.365 33.3947 133.725 33.2652 134.119C32.9143 135.188 32.7028 136.297 32.6359 137.419C32.2886 139.541 30.9791 141.474 30.704 143.683C30.4114 143.645 27.9452 145.145 27.5356 148.015C27.4292 148.762 27.5082 149.251 28.193 149.625C29.3125 150.233 31.2018 150.362 32.4627 150.439C36.5271 150.689 38.9911 151.112 40.4784 149.703C41.4101 150.871 43.0776 151.051 44.4843 151.12C48.8246 151.333 53.1742 151.254 57.5039 150.885C60.5956 150.626 65.9916 150.304 64.3127 147.872ZM50.9048 133.274C51.0454 132.539 51.6511 130.502 52.3967 130.434C52.4576 130.453 52.5133 130.485 52.5593 130.529C52.6053 130.573 52.6402 130.627 52.6612 130.687C53.0784 131.682 51.8039 133.009 51.0021 133.727C50.8212 133.657 50.863 133.76 50.9048 133.274ZM49.2435 129.338C49.361 129.328 49.4777 129.365 49.568 129.441C50.2687 129.908 50.2353 132.762 50.1137 133.599L49.9297 133.767C48.9889 132.772 48.032 129.712 49.2435 129.338ZM61.1405 145.774C61.1405 145.758 61.1443 145.744 61.1405 145.774V145.774Z" fill="#EF233C"/>
</svg>
